<?xml version="1.0" encoding="UTF-8"?>
<!DOCTYPE svg PUBLIC "-//W3C//DTD SVG 1.1//EN" "http://www.w3.org/Graphics/SVG/1.1/DTD/svg11.dtd">
<!-- Creator: CorelDRAW 2020 (64 Bit Versão de avaliação) -->
<svg xmlns="http://www.w3.org/2000/svg" xml:space="preserve" width="51mm" height="35.5mm" version="1.1" style="shape-rendering:geometricPrecision; text-rendering:geometricPrecision; image-rendering:optimizeQuality; fill-rule:evenodd; clip-rule:evenodd"
viewBox="0 0 5100 3550"
 xmlns:xlink="http://www.w3.org/1999/xlink"
 xmlns:xodm="http://www.corel.com/coreldraw/odm/2003">
 <defs>
  <style type="text/css">
   <![CDATA[
    .fil18 {fill:#001AD9}
    .fil17 {fill:#0022DA}
    .fil26 {fill:#0035DD}
    .fil24 {fill:#0043DF}
    .fil19 {fill:#0052E1}
    .fil27 {fill:#005EE3}
    .fil16 {fill:#006DE5}
    .fil13 {fill:#0076E6}
    .fil31 {fill:#009552}
    .fil12 {fill:#00A956}
    .fil22 {fill:#00B149}
    .fil23 {fill:#00B63E}
    .fil29 {fill:#00BD34}
    .fil25 {fill:#00C624}
    .fil28 {fill:#00CB1B}
    .fil10 {fill:#00DA01}
    .fil0 {fill:#010088}
    .fil6 {fill:#0935AC}
    .fil20 {fill:#0B2296}
    .fil9 {fill:#0B259A}
    .fil14 {fill:#0F1182}
    .fil15 {fill:#0F1385}
    .fil2 {fill:#11006D}
    .fil21 {fill:#110271}
    .fil32 {fill:#491345}
    .fil30 {fill:#830045}
    .fil3 {fill:#AE0000}
    .fil4 {fill:#C30000}
    .fil8 {fill:#D00000}
    .fil11 {fill:#D50000}
    .fil1 {fill:#E00000}
    .fil7 {fill:#F70000}
    .fil5 {fill:#FD0000}
   ]]>
  </style>
 </defs>
 <g id="Camada_x0020_1">
  <metadata id="CorelCorpID_0Corel-Layer"/>
  <g id="_2040289699680">
   <path class="fil0" d="M3820.43 2802.65l-118.53 -4.41c-39.36,-6.04 -72.97,-2.3 -113.75,-8.12 -23.14,-3.3 -83.89,-11.69 -106.38,-11.85l-118.54 -16.55 -135.46 -23.96 -190.46 -35.99 -427.61 -75.66c-49.09,-2.68 -124.83,-3.15 -163.44,-27.1l-48.23 -4.13 -67.73 -12.73 -17.02 1.71 -24.45 -9.83 -25.41 0.89 -24.69 -9.57 -52.36 -7.5c-75.15,-18.18 -174.94,-32.1 -253.51,-42.84 -85.12,-11.64 -184.22,-34.06 -271.43,-33.15l-37.21 -8.25 -52.57 -1.12c-20.6,-0.78 -33.92,4.87 -42.59,-12.09 -20.87,3.6 -212.12,-3.24 -248.63,-5.53l-110.07 4.23c-59.2,-7.79 -133.2,11.95 -194.73,15.29l-34.68 6.18 -21.28 10.09 -28.71 2.54c-124.22,7.61 -416.61,131.09 -522.62,210.88 -122.44,92.14 -185.94,156.36 -268.27,282.06 -30.66,46.81 -41.37,77.6 -64.24,122.03 84.92,-19.89 376.06,-176.46 557.6,-238.27 460.87,-156.92 914.4,-74.35 1391.76,16.11 658.05,124.71 1485.93,289.42 2128.65,219.23 213.01,-23.26 411.67,-86.9 590.71,-205.16 131.72,-86.99 318.6,-297.21 352.02,-452.31 -31.9,21.17 -73.28,61.47 -107.62,87.11 -136.24,101.67 -233.82,153.25 -402.03,199.11 -81.23,22.14 -340.68,60.35 -429.82,61.24 -124.2,1.24 -153.31,12.14 -296.67,7.42z"/>
   <path class="fil1" d="M1876.58 3184.37l705.6 146.05c122.29,24.46 619.67,116.51 746.03,116.41 0,-92.97 10.06,-172.11 7.88,-262.46 -351.8,0.09 -1371.6,-243.84 -1451.04,-245.54 0,87.76 -8.47,158.57 -8.47,245.54z"/>
   <path class="fil2" d="M2805.2 1372.5c-3.37,145.44 -17.1,279.23 -18.28,423.33 50.67,71.72 64.2,57.51 105.5,182.95 61.58,187.06 129.83,691.8 144.89,722.99l190.46 35.99 -39.79 -360.27c-21.96,-166.57 -117.51,-677.62 -160.02,-847.52 -11.96,-47.79 -33.18,-117.13 -37.26,-165.94 -68.16,0 -122.83,8.47 -185.5,8.47z"/>
   <path class="fil3" d="M1868.52 1380.97l-3.67 770.46c46.63,21.81 116.94,6.1 169.42,8.17 98.9,3.9 82.78,66.78 121.8,242.26 10.03,45.09 30.26,111.14 30.3,155.99l52.36 7.5 24.69 9.57 25.41 -0.89 24.45 9.83 17.02 -1.71c-11.43,-23 -17.55,-77.69 -26.28,-108.11 -19.56,-68.11 -92.01,-275.96 -78.22,-317.04l70.59 -6.45c-0.03,-60.3 -110.63,-318.17 -136.47,-396.01 -10.15,-30.6 -125.05,-360.11 -151.36,-390.51l-140.04 16.94z"/>
   <path class="fil4" d="M3336.09 3184.37c2.18,90.35 -7.88,169.49 -7.88,262.46 101.77,1.72 188.12,16.18 339.94,17.05 46.71,0.27 70.15,-6.64 109.96,-8.57 142.46,-6.88 278.96,-26.87 407.5,-66.64 229.68,-71.06 414.33,-201.9 549.23,-407.5 -37.61,9 -210.88,98.54 -282.54,123.86 -293.93,103.9 -407.57,104.74 -725,104.74l-195.2 -8c-46.05,-3.61 -162.31,-3.23 -196.01,-17.4z"/>
   <path class="fil5" d="M1876.58 3184.37c0,-86.97 8.47,-157.78 8.47,-245.54 -46.54,-17.21 -148.6,-31.28 -200.62,-39.93 -215.39,-35.82 -439.97,-69.67 -659.44,-46.17 -155.2,16.62 -256.25,38.02 -397.63,84.97 -61.95,20.58 -295.77,105.88 -329.07,153.53 59.29,-14.28 129.79,-19.88 193.22,-26.91 524.47,-58.15 863.01,15.23 1385.07,120.05z"/>
   <path class="fil6" d="M2589.32 1338.63c22.12,-61.09 5.5,-192.81 15.05,-265.52 6.55,-49.79 -3.77,-79.91 10.82,-125.54 11.46,-35.87 7.51,-81.99 7.5,-125.4 -39.55,-110.22 -122.53,-79.82 -123.06,-516.47 -0.06,-50.43 14.51,-173.07 2.57,-205.77 -46.01,-16.8 -84.13,2.51 -129.57,2.57 -1.95,23.34 -9.61,46.95 -13.5,71.16 -37.21,231.82 -54.71,692.29 -12.75,903.36 24.42,122.83 38.85,154.79 93.99,261.61l148.95 0z"/>
   <path class="fil2" d="M2838.59 847.57c15.43,35.54 1.73,186.91 -0.91,237.06 -2.19,41.67 -8.32,70.7 -8.43,118.49 -0.1,40.92 6.15,90.36 -8.78,127.05l136.36 0c15.91,-24.92 7.69,-67.01 119.82,-218.86 145.21,-196.64 195.79,-225.43 313.24,-372.55 47.56,-59.57 118.18,-125.1 159.61,-187.53 -116.7,-232.32 -282.14,119.23 -488.11,223.09 -65.16,32.86 -152.09,73.18 -222.8,73.25z"/>
   <path class="fil7" d="M1529.06 2460.4l42.59 12.09 52.57 1.12 37.21 -0.2c3.43,-38.95 26.96,-125.54 37.14,-166.3 10.19,-40.75 42.96,-132.48 43.81,-164.14l4.71 -745.07c-34.53,-0.04 -58.35,3.39 -88.22,14.37 -65.07,177.06 -79.16,333.13 -197.86,547.21 -31.18,56.21 -65.26,98.22 -95.91,158.09 74.24,-0.14 146.5,16.93 228.6,16.93 -12.32,51.13 -17.24,112.64 -28.94,165.79 -7.8,35.42 -39.86,133.37 -35.7,160.11z"/>
   <path class="fil8" d="M1746.1 870.91c23.76,33.81 9.69,203.56 9.49,247.59 -0.39,84.63 -0.22,169.39 -1.4,254 58.25,-5.09 141.66,-25.33 197.78,-25.4 3.98,-361.23 13.68,-713.03 14.79,-1075.27l-51.33 -177.8c-44.91,0 -93.33,-3.75 -135.47,25.4l41.69 186.92c34.3,170.51 82.92,451.54 -75.55,564.56z"/>
   <path class="fil5" d="M1754.19 1372.5c1.18,-84.61 1.01,-169.37 1.4,-254 0.2,-44.03 14.27,-213.78 -9.49,-247.59 -74.61,48.82 -195.9,39.7 -285.61,25.2 -149.34,-24.14 -310.7,-145.93 -440.78,-228.09 -108.3,-68.41 -132.86,-66.62 -188.01,52.55 134.52,89.02 115.04,65.68 242.91,129.62 79.12,39.55 162.69,87.46 239.22,133.31 80.34,48.14 145.62,93.47 219.42,153.12 85.31,68.96 136.77,126.59 136.65,244.35l84.29 -8.47z"/>
   <path class="fil9" d="M2536.21 1380.97l-5.36 225.64c-8.23,32.64 -3.05,-7.55 -10.23,30.57 -2.03,10.79 -1.87,28.12 -1.91,39.59 -0.34,106.38 8.27,137.81 -13.43,224.89 -6.11,24.51 -3.26,54.3 -3.39,80.39 -0.22,47.78 2.13,114.17 -2.72,159.9 -4.93,46.5 -4.37,105.82 -10.65,150.14 -11.12,78.43 5.25,76.53 -15.1,145.39 -12.19,41.26 -5.66,105.76 -6.44,154.22l-20.72 7.31c38.61,23.95 114.35,24.42 163.44,27.1 0,-63.32 -8.85,-106.83 -8.52,-169.82 0.64,-124.88 -5.78,-217.72 14.42,-341.28 6.49,-39.67 28.18,-117.38 26.25,-149.84 2.24,-97.89 7.82,-200.71 18.21,-295.87 5.71,-52.22 7.51,-88.48 7.92,-144.42 0.42,-55.75 8.47,-100.49 8.23,-152.38 -41.61,0 -104.9,-11.31 -140,8.47z"/>
   <path class="fil5" d="M1517.5 407.3c-57.08,17.34 -82.65,24.62 -107.04,87.69 -70.9,183.28 75.09,370.41 222.36,324.2 264.87,-83.12 70.6,-468.39 -115.32,-411.89z"/>
   <path class="fil6" d="M2398.03 2594.88l48.23 4.13 20.72 -7.31c0.78,-48.46 -5.75,-112.96 6.44,-154.22 20.35,-68.86 3.98,-66.96 15.1,-145.39 6.28,-44.32 5.72,-103.64 10.65,-150.14 4.85,-45.73 2.5,-112.12 2.72,-159.9 0.13,-26.09 -2.72,-55.88 3.39,-80.39 21.7,-87.08 13.09,-118.51 13.43,-224.89 0.04,-11.47 -0.12,-28.8 1.91,-39.59 7.18,-38.12 2,2.07 10.23,-30.57l5.36 -225.64 -112.78 0c0,103.49 -8.46,191.33 -8.46,296.33 0,104.42 -0.01,208.84 0,313.27 0.01,103.49 -8.47,191.33 -8.47,296.33 0,50.87 -0.01,101.73 0.2,152.6 0.23,56.42 -8.67,95.24 -8.67,155.38z"/>
   <path class="fil10" d="M1090.61 2100.63c-1.71,-80.8 -23.43,-155.88 -25.43,-237.13 -1.54,-62.08 -11.07,-61.1 -16.68,-117.22 -3.88,-38.77 -14.21,-71.12 -15.08,-111.31 -33.34,17.05 -175.75,-10.97 -219.88,-15.72l-185.6 -1.77c-34.45,1.62 -29.22,-1.15 -50.24,17.49 5.18,61.01 94.94,49.75 146.52,56.67 57.06,7.65 120.96,8.63 164.79,46.88 83.59,72.94 4.64,278.44 16.5,356.4 46.16,16.52 132.41,5.71 185.1,5.71z"/>
   <path class="fil11" d="M1747.09 1397.9l-4.71 745.07c44.75,3.36 71.1,8.46 122.47,8.46l3.67 -770.46c-19.2,0.34 -107.78,10.19 -121.43,16.93z"/>
   <path class="fil3" d="M1951.97 1347.1c79.75,-14.43 100.9,-145.4 112.36,-215.17 16.06,-97.8 15.4,-212.23 12.25,-318.51 -2.89,-97.34 -69.96,-480.71 -109.82,-541.59 -1.11,362.24 -10.81,714.04 -14.79,1075.27z"/>
   <path class="fil12" d="M1111.1 1404.2c22.74,33.03 24.21,198.18 37.29,244.49 11.73,41.5 3.53,101.87 8.05,129.73 10.1,62.3 8.53,-33.21 26.74,113.27 6.12,49.22 -6.96,144.46 12.58,181.62 61.49,0.56 126.09,-60.69 160.87,-99.68 -26.19,-51.52 -60.3,-93.32 -87.65,-149.41 -66.58,-136.52 -62.59,-389.31 -46.58,-543.62 3.16,-30.41 17.38,-79.19 9.8,-105.4l-44.81 -6.97c-1.27,2.77 -2.78,3.51 -3.2,6.42l-73.09 229.55z"/>
   <path class="fil13" d="M3363.23 2761.72l118.54 16.55c0,-52.35 -2.54,-97.65 5.85,-146.85 6.92,-40.66 25.11,-99.61 27.93,-132.85 0.64,-102.68 -16.28,-212.97 -20.05,-321.74l-123.8 0 -8.48 287.86c0.23,99 0.01,198.02 0.01,297.03z"/>
   <path class="fil14" d="M2712.37 856.03c1.42,90.31 -15.14,158.14 -16,245.65 -0.74,74.67 -15.21,163.3 -17.07,236.95 54.78,0 87.72,-8.46 141.17,-8.46 14.93,-36.69 8.68,-86.13 8.78,-127.05 0.11,-47.79 6.24,-76.82 8.43,-118.49 2.64,-50.15 16.34,-201.52 0.91,-237.06 -47.86,11.34 -75.04,8.46 -126.22,8.46z"/>
   <path class="fil15" d="M2641.85 1965.17c38.89,-47.02 31.28,-133.01 111.78,-186.27l33.29 16.93c1.18,-144.1 14.91,-277.89 18.28,-423.33l-128.99 0c0.24,51.89 -7.81,96.63 -8.23,152.38 -0.41,55.94 -2.21,92.2 -7.92,144.42 -10.39,95.16 -15.97,197.98 -18.21,295.87z"/>
   <path class="fil16" d="M3502.36 2159.9c-1.75,-69.29 -2.82,-130.06 -9.85,-196.31 -6.47,-60.93 -13.64,-125.44 -18.07,-185.05 -9.25,-124.53 -31.74,-257.54 -34.96,-380.64l-42.38 0 8.51 381.04c-21.24,393.01 -103.21,380.96 96.75,380.96z"/>
   <path class="fil17" d="M3684.72 2591.7c0.79,23.96 8.98,73.77 12.49,97.82 5.79,39.75 4.69,67.77 4.69,108.72l118.53 4.41c-0.03,-42.94 -15.76,-110.69 -22.99,-154.08l-84.17 -474.64c-30.68,-10.24 -42.15,-11.18 -62.17,5.59 2.38,4.58 33.12,375.33 33.62,412.18z"/>
   <path class="fil14" d="M2739.15 373.43c-0.08,70.2 -8.69,126.56 -9.24,194.66 -0.54,67.51 -8.24,123.19 -8.87,186.34 34.65,26.69 82.04,17.95 125.48,16.94 -0.06,-47.75 7,-161.88 18.36,-201.17 16.88,-58.42 6.19,-147.56 6.77,-213.7 -46.73,-11.6 -99.39,-20.13 -132.5,16.93z"/>
   <path class="fil18" d="M3727.3 1609.57c-51.24,15.71 -120.47,35.95 -141.17,130.47 -34.23,156.27 224.55,178.58 265.11,-6.65 7.79,-35.54 9.48,-83.63 -20.34,-108.89 -8.52,-7.22 -36.18,-20.03 -46.65,-22.06 -42.03,-8.13 -56.76,7.07 -56.95,7.13z"/>
   <path class="fil18" d="M3650.54 1905.9l4.62 245.53 55.21 0c2.96,-146.81 171.81,-186.71 290.12,-200.94 80.51,-9.68 79.94,21.17 115.18,-50.12 -54.54,-39.83 -373.98,5.53 -465.13,5.53z"/>
   <path class="fil19" d="M3502.36 2159.9l89.47 -8.47 -5.21 -262.46c-4.02,-15.26 -40.4,-67.04 -52.98,-102.68 -12.23,-34.64 -26.06,-92.17 -32.7,-128.16 -8.08,-43.8 -23.57,-232.37 -61.46,-260.23 3.22,123.1 25.71,256.11 34.96,380.64 4.43,59.61 11.6,124.12 18.07,185.05 7.03,66.25 8.1,127.02 9.85,196.31z"/>
   <path class="fil20" d="M2589.32 1338.63l89.98 0c1.86,-73.65 16.33,-162.28 17.07,-236.95 0.86,-87.51 17.42,-155.34 16,-245.65l-89.68 -33.86c0.01,43.41 3.96,89.53 -7.5,125.4 -14.59,45.63 -4.27,75.75 -10.82,125.54 -9.55,72.71 7.07,204.43 -15.05,265.52z"/>
   <path class="fil21" d="M2846.52 771.37c210.53,-49.44 210.12,-324.42 25.13,-414.87 -0.58,66.14 10.11,155.28 -6.77,213.7 -11.36,39.29 -18.42,153.42 -18.36,201.17z"/>
   <path class="fil22" d="M1170.36 2459.1l110.07 -4.23c0,-91.84 16.29,-289.99 -16.93,-362.7 -130.41,2.76 -102.08,127.67 -101.89,254.29 0.06,46.26 8.83,67.5 8.75,112.64z"/>
   <path class="fil10" d="M1009.88 1584.17l-11.98 -220.14c-33.38,-27.77 -137.39,-10.52 -165.8,25.81 -26.32,33.64 -25.05,157.45 -11.77,197.23l45.14 6.63 0.09 -77.27c58.97,42.03 20.8,67.74 144.32,67.74z"/>
   <path class="fil10" d="M890.96 2493.2l28.71 -2.54 21.28 -10.09 34.68 -6.18c17.9,-80.45 133.48,-277.66 112.97,-342.79l-104.49 -6.28 -93.15 367.88z"/>
   <path class="fil23" d="M1089.95 1533.37c1.86,88.54 9.6,202.06 21,288.26 5.75,43.52 6.02,96.17 16.55,135.42 10.22,38.09 14.77,91.62 15.85,135.12 25.5,-5.63 35.39,-5.53 52.41,-18.86 -19.54,-37.16 -6.46,-132.4 -12.58,-181.62 -18.21,-146.48 -16.64,-50.97 -26.74,-113.27 -4.52,-27.86 3.68,-88.23 -8.05,-129.73 -13.08,-46.31 -14.55,-211.46 -37.29,-244.49l-21.15 129.17z"/>
   <path class="fil20" d="M2721.04 754.43c0.63,-63.15 8.33,-118.83 8.87,-186.34 0.55,-68.1 9.16,-124.46 9.24,-194.66 -134.5,32.2 -181.17,339.48 -18.11,381z"/>
   <path class="fil24" d="M3563.25 2430.83c9.05,-8.75 2.95,-4.11 17.94,-6.29 65.12,64.23 68.3,126.55 103.53,167.16 -0.5,-36.85 -31.24,-407.6 -33.62,-412.18l-93.18 -2.69 5.33 254z"/>
   <path class="fil25" d="M1033.42 1634.97c0.87,40.19 11.2,72.54 15.08,111.31 5.61,56.12 15.14,55.14 16.68,117.22 2,81.25 23.72,156.33 25.43,237.13l52.74 -8.46c-1.08,-43.5 -5.63,-97.03 -15.85,-135.12 -10.53,-39.25 -10.8,-91.9 -16.55,-135.42 -11.4,-86.2 -19.14,-199.72 -21,-288.26 -15.7,49.73 2.04,74.89 -56.53,101.6z"/>
   <path class="fil26" d="M3591.83 2151.43l63.33 0 -4.62 -245.53c-37.61,-0.82 -30.37,-4.44 -63.92,-16.93l5.21 262.46z"/>
   <path class="fil27" d="M3515.55 2498.57c16.83,-24.23 19.1,-40.63 47.7,-67.74l-5.33 -254 -62.42 0c3.77,108.77 20.69,219.06 20.05,321.74z"/>
   <path class="fil28" d="M1009.88 1584.17c75.48,-50.85 62.05,-89.4 18,-163.77l17.34 -5.57 -1.46 -42.33 -45.86 -8.47 11.98 220.14z"/>
   <polygon class="fil29" points="1045.22,1414.83 1092.73,1443.11 1101.71,1380.81 1043.76,1372.5 "/>
   <path class="fil30" d="M1571.65 2472.49l-42.59 -12.09c8.67,16.96 21.99,11.31 42.59,12.09z"/>
   <polygon class="fil30" points="1661.43,2481.86 1661.43,2473.41 1624.22,2473.61 "/>
   <polygon class="fil31" points="940.95,2480.57 919.67,2490.66 "/>
   <polygon class="fil32" points="2313.28,2583.86 2288.83,2574.03 "/>
   <polygon class="fil32" points="2263.42,2574.92 2238.73,2565.35 "/>
  </g>
 </g>
</svg>
